<?xml version="1.0" encoding="utf-8"?>
<!-- Generator: Adobe Illustrator 22.0.0, SVG Export Plug-In . SVG Version: 6.00 Build 0)  -->
<svg version="1.1" id="圖層_1" xmlns="http://www.w3.org/2000/svg" xmlns:xlink="http://www.w3.org/1999/xlink" x="0px" y="0px"
	 viewBox="0 0 234 248" style="enable-background:new 0 0 234 248;" xml:space="preserve">
<style type="text/css">
	.st0{fill:#FFFFFF;}
	.st1{fill:none;stroke:#8FB2B6;stroke-width:5;stroke-linecap:round;stroke-linejoin:round;stroke-miterlimit:10;}
	.st2{fill:#8FB2B6;stroke:#8FB2B6;stroke-miterlimit:10;}
	.st3{font-family:'LevenimMT';}
	.st4{font-size:22.3012px;}
</style>
<path class="st0" d="M-8.5-8.5v265h251v-265H-8.5z M134.4,163.8c-0.9,0.7-1.3,1.7-1.1,2.8l0.8,3.8c0.4,1.8-1,3.4-2.8,3.4h-12h-2.4
	h-12c-1.8,0-3.1-1.6-2.8-3.4l0.8-3.8c0.2-1-0.2-2.1-1-2.8c-13.9-10.8-30-28-22.1-46.8c2.8-6.8,7.8-10.3,12.9-15.3
	c8.7-8.5,10.7-20.6,8.9-32.3c-0.2-1.1-1.5-7.9-3.1-13.7c-0.5-1.8,0.8-3.6,2.7-3.6h33.3c1.8,0,3.2,1.7,2.8,3.5
	c-2.3,9.9-3.2,24.9-2.9,27.3c0.8,6.9,4.4,12.1,8.5,16.9c7.1,8.3,16,15.5,15.8,27.7C158.4,142.7,145.6,155,134.4,163.8z"/>
<path class="st1" d="M158.6,127.5c0.2-12.2-8.7-19.4-15.8-27.7c-4.1-4.8-7.7-10.1-8.5-16.9c-0.3-2.4,0.6-17.4,2.9-27.3
	c0.4-1.8-0.9-3.5-2.8-3.5h-33.3c-1.9,0-3.2,1.8-2.7,3.6c1.6,5.8,3,12.5,3.1,13.7c1.8,11.7-0.2,23.8-8.9,32.3
	c-5.1,4.9-10,8.5-12.9,15.3c-7.9,18.8,8.2,36,22.1,46.8c0.8,0.7,1.2,1.7,1,2.8l-0.8,3.8c-0.4,1.8,1,3.4,2.8,3.4h12h2.4h12
	c1.8,0,3.1-1.6,2.8-3.4l-0.8-3.8c-0.2-1.1,0.2-2.1,1.1-2.8C145.6,155,158.4,142.7,158.6,127.5z"/>
<g>
	<path class="st0" d="M104.7,121.1c0-0.7,0.1-1.7,0.4-2.8c-0.1-0.2-0.1-0.4-0.2-0.5c0.7-1.8,2-2.9,3.7-3.4c0.4,0.2,1.2,0.7,2.1,1.4
		c0.7,0.4,1.1,0.7,1.2,0.9c0.4,0.4,0.8,0.7,1.1,0.9c1.2,0.7,2,1.2,2.7,1.4c0.1-0.2,0.1-0.5,0.2-0.9c0.2-2.5,1-4.1,2.3-4.8
		c0.1,0.2,0.3,0.5,0.7,0.9c0.2,0.4,0.4,0.7,0.5,1.1c0,0.4,0,0.9,0,1.2c0,1.2,0.1,1.9,0.4,2.1c0.2,0,0.4,0.1,0.7,0.2
		c3.2-1.2,6.4-1.9,9.4-2.3c2.1,0.4,3.2,1.5,3.2,3.4c-1.9,3.6-4.6,5.3-8.2,5.3c-0.1-0.1-0.1-0.2-0.2-0.4c0.2-0.4,0.4-0.8,0.7-1.2
		c0.6-1.3,1.2-2.4,1.8-3.4c-0.4-0.1-0.8-0.1-1.4-0.2c-0.7,0.2-1.5,0.4-2.3,0.5c-1.1,0.2-1.7,0.5-2,0.9c-0.4,0.4-0.6,1-0.4,1.6
		c0,0.7,0,1.4,0,2c0.4,0.2,0.6,0.3,0.5,0.4c0.2,0.2,0.5,0.3,0.9,0.4c0.4-0.2,0.9-0.3,1.8-0.4c0.1,0,0.2,0.1,0.4,0.2l-0.7,0.4
		c-1.9,0.8-3.4,1.8-4.5,3c0.4,0,0.7,0.1,0.9,0.2h1.1c2.3-0.4,5.2-0.7,8.5-0.7c0.2,0,0.6,0.1,1.1,0.4c-3.2,0.4-6.1,0.9-8.5,1.6h-1.4
		c-1.2,0-1.9,0.1-2.1,0.2l-0.4,0.7c0.4,0,0.8,0.1,1.1,0.2c0.4,0,0.9,0,1.2,0c0.7-0.2,2-0.3,3.7-0.4c0,0.1,0.1,0.2,0.2,0.4
		c-1.9,0.4-3.4,0.8-4.5,1.2c-0.2,0-0.5,0-0.9,0c-0.4,0-0.7,0.1-0.7,0.2c-0.1,0.1-0.1,0.2-0.2,0.4c0,0.2,0,0.4,0,0.5
		c0.1,0,0.2,0.1,0.4,0.2c0.2,0,0.4,0,0.5,0c1.8-0.4,4.7-0.5,8.7-0.5c0.1,0.1,0.1,0.1,0.2,0.2l-5.3,1.1c-0.9,0.2-1.9,0.4-2.9,0.5
		c-0.1-0.1-0.2-0.1-0.4-0.2c-0.4,0-0.9,0.1-1.4,0.4c-0.2-0.1-0.5-0.1-0.9-0.2c-0.6,0-1,0.1-1.2,0.4c0.6,0.4,1.2,1.3,2,2.5
		c0.6,1.1,1.1,2.1,1.6,3.2c0.8,1.5,1.8,2.5,2.8,3c0.7,0.4,2.3,0.5,4.8,0.5c0.2,0,0.4-0.1,0.5-0.2c0.6,0,1.1-0.1,1.6-0.4
		c0.4-0.2,0.7-0.6,0.9-1.1c0.2-0.4,0.5-0.7,0.9-0.9c0.2,0.4,0.3,0.7,0.4,0.9c0.1,0.1,0.1,0.4,0.2,1.1c-1.1,1.9-3.4,2.8-6.9,2.9
		c-2.7-0.4-5.1-2.5-7.3-6.2c-0.6-1.1-1.3-2.6-2.3-4.5c-0.1,0.1-0.1,0.4-0.2,1.1c0.4,3.3,0.7,6,0.7,8.2H116c-0.7-3.8-1.2-6.9-1.4-9.3
		c-0.1,0.4-0.4,1.3-1.1,2.8c-0.6,2.1-1,3.6-1.2,4.3c-0.6,1.6-1.4,2.8-2.5,3.6c-0.2-0.2-0.3-0.4-0.4-0.5c-0.1-0.1-0.1-0.3-0.2-0.7
		c0.1-0.1,0.1-0.2,0.2-0.4c0.4-0.9,0.9-1.9,1.6-2.8c0.9-1.6,1.5-2.6,1.6-2.8l0.4-1.1c0.2-1.5,0.5-2.6,0.9-3.2
		c-0.2-0.1-0.4-0.1-0.7-0.2c-0.2,0-0.4,0.1-0.5,0.2c-0.2,0-0.4-0.1-0.5-0.2c-1.4-0.2-2.3-0.4-2.7-0.7c0.7-0.4,2-0.8,3.7-1.1
		c1.1,0.4,2.3,0.5,3.7,0.5c0.1-0.1,0.2-0.1,0.4-0.2c0.1,0.1,0.1,0.1,0.2,0.2c0-0.2,0.1-0.4,0.2-0.5c0-0.1,0-0.3,0-0.5
		c-0.4,0-0.7-0.1-0.9-0.2c-2.5-0.2-4.1-0.5-4.8-0.9c0.4-0.2,0.9-0.3,1.6-0.4c0.7,0,1.4,0,2,0c0.6,0,1.1,0,1.6,0
		c0-0.2,0.1-0.4,0.2-0.7c-0.9-0.4-2.6-0.7-5-0.9c-0.9-0.2-1.7-0.3-2.3-0.4c-0.6-0.1-1.3-0.3-2.3-0.5c1.2-0.7,3-1.1,5.5-1.1
		c0.1,0,0.3,0.1,0.5,0.2c0-0.1,0.1-0.1,0.2-0.2c-0.1-0.1-0.1-0.2-0.2-0.4c0.6-0.8,1.2-1.4,1.8-1.8c0-0.4-0.1-0.6-0.2-0.7
		c0-1.3-0.1-2-0.4-2.3c-0.1-0.1-0.4-0.1-1.1-0.2c-0.2,0.1-0.5,0.1-0.9,0.2c-0.6,2.3-1.3,3.6-2.1,3.7c-0.2,0-0.5,0-0.9,0
		c-1.4-0.4-2.7-1-3.7-2C104.9,123.9,104.4,122.7,104.7,121.1z M116.3,128.8c0.4,0,0.9,0.1,1.2,0.2h1.4c0.4-0.6,1.1-1.4,2.1-2.5
		c-0.9-0.9-1.4-1.7-1.4-2.3v-1.1v-0.7c-0.2-0.1-0.4-0.1-0.7-0.2c-0.2,0.1-0.7,0.1-1.6,0.2c-0.7,0.2-1.1,0.4-1.1,0.5
		c-0.1,0.1-0.1,0.7-0.2,1.8c0.1,0.7,0.1,1.4,0.2,2c-0.1,0.4-0.1,1-0.2,2C116.2,128.7,116.3,128.7,116.3,128.8z M129.7,136.4
		c-0.4,2.6-2,3.9-4.8,3.9c-1.1-0.7-1.6-1.7-1.6-3c0-0.4,0-0.8,0-1.2c0.6-0.6,1.8-0.9,3.6-0.9C128.7,135.2,129.6,135.6,129.7,136.4z"
		/>
</g>
<text transform="matrix(0.9613 0 -0.2756 0.9613 85.5303 194.4447)" class="st2 st3 st4">utsuwa</text>
</svg>
