<?xml version="1.0" encoding="utf-8"?>
<!-- Generator: Adobe Illustrator 22.0.0, SVG Export Plug-In . SVG Version: 6.00 Build 0)  -->
<svg version="1.1" id="圖層_1" xmlns="http://www.w3.org/2000/svg" xmlns:xlink="http://www.w3.org/1999/xlink" x="0px" y="0px"
	 viewBox="0 0 234 248" style="enable-background:new 0 0 234 248;" xml:space="preserve">
<style type="text/css">
	.st0{fill:#FFFFFF;}
	.st1{fill:none;stroke:#8FB2B6;stroke-width:5;stroke-linecap:round;stroke-linejoin:round;stroke-miterlimit:10;}
	.st2{fill:#8FB2B6;stroke:#8FB2B6;stroke-miterlimit:10;}
	.st3{font-family:'LevenimMT';}
	.st4{font-size:22.3012px;}
</style>
<path class="st0" d="M-8.5-8.5v265h251v-265H-8.5z M131.1,163.4c-0.7,0.5-1,1.4-0.8,2.2l0.6,3c0.3,1.4-0.8,2.7-2.2,2.7H119h-1.9
	h-9.6c-1.4,0-2.5-1.3-2.2-2.7l0.6-3c0.2-0.8-0.1-1.7-0.8-2.2c-11.1-8.6-23.9-22.3-17.6-37.3c2.3-5.4,6.2-8.2,10.2-12.2
	c6.9-6.8,8.5-16.4,7.1-25.7c-0.1-0.9-1.2-6.3-2.5-10.9c-0.4-1.4,0.7-2.9,2.2-2.9h26.5c1.5,0,2.5,1.4,2.2,2.8
	c-1.9,7.8-2.6,19.8-2.3,21.7c0.7,5.5,3.5,9.6,6.8,13.5c5.7,6.6,12.7,12.3,12.6,22C150.2,146.6,140,156.5,131.1,163.4z"/>
<path class="st1" d="M150.7,134.6c0.1-9.7-6.9-15.4-12.6-22c-3.3-3.9-6.1-8-6.8-13.5c-0.2-1.9,0.5-13.9,2.3-21.7
	c0.3-1.4-0.7-2.8-2.2-2.8H105c-1.5,0-2.6,1.4-2.2,2.9c1.3,4.6,2.3,10,2.5,10.9c1.4,9.3-0.2,18.9-7.1,25.7c-4,3.9-8,6.8-10.2,12.2
	c-6.3,15,6.6,28.7,17.6,37.3c0.7,0.5,1,1.4,0.8,2.2l-0.6,3c-0.3,1.4,0.8,2.7,2.2,2.7h9.6h1.9h9.6c1.4,0,2.5-1.3,2.2-2.7l-0.6-3
	c-0.2-0.8,0.2-1.7,0.8-2.2C140.5,156.5,150.6,146.6,150.7,134.6z"/>
<g>
	<path class="st0" d="M107.5,129.5c0-0.6,0.1-1.3,0.3-2.3c-0.1-0.2-0.1-0.3-0.1-0.4c0.6-1.4,1.6-2.3,3-2.7c0.4,0.2,0.9,0.5,1.7,1.1
		c0.6,0.4,0.9,0.6,1,0.7c0.4,0.4,0.6,0.6,0.9,0.7c0.9,0.6,1.6,0.9,2.1,1.1c0.1-0.2,0.1-0.4,0.1-0.7c0.2-2,0.8-3.3,1.8-3.8
		c0.1,0.2,0.3,0.4,0.6,0.7c0.2,0.3,0.3,0.6,0.4,0.9c0,0.4,0,0.7,0,1c0,0.9,0.1,1.5,0.3,1.7c0.2,0,0.4,0,0.6,0.1
		c2.6-0.9,5.1-1.5,7.5-1.8c1.7,0.3,2.6,1.2,2.6,2.7c-1.5,2.8-3.7,4.3-6.5,4.3c-0.1-0.1-0.1-0.2-0.1-0.3c0.2-0.3,0.4-0.6,0.6-1
		c0.4-1,0.9-1.9,1.4-2.7c-0.3-0.1-0.7-0.1-1.1-0.1c-0.6,0.2-1.2,0.3-1.8,0.4c-0.9,0.2-1.4,0.4-1.6,0.7c-0.4,0.4-0.4,0.8-0.3,1.3
		c0,0.6,0,1.1,0,1.6c0.4,0.2,0.5,0.3,0.4,0.3c0.2,0.2,0.4,0.3,0.7,0.3c0.3-0.2,0.8-0.3,1.4-0.3c0.1,0,0.2,0,0.3,0.1l-0.6,0.3
		c-1.5,0.6-2.7,1.4-3.5,2.4c0.3,0,0.5,0,0.7,0.1h0.9c1.9-0.4,4.1-0.5,6.8-0.6c0.2,0,0.4,0.1,0.9,0.3c-2.6,0.3-4.8,0.7-6.8,1.3h-1.1
		c-0.9,0-1.5,0-1.7,0.1l-0.3,0.6c0.4,0,0.6,0,0.9,0.1c0.4,0,0.7,0,1,0c0.6-0.2,1.6-0.3,3-0.3c0,0.1,0,0.2,0.1,0.3
		c-1.5,0.3-2.7,0.6-3.5,1c-0.2,0-0.4,0-0.7,0c-0.4,0-0.5,0-0.6,0.1c-0.1,0.1-0.1,0.2-0.1,0.3c0,0.2,0,0.3,0,0.4c0.1,0,0.2,0,0.3,0.1
		c0.2,0,0.3,0,0.4,0c1.4-0.3,3.7-0.4,6.9-0.4c0.1,0.1,0.1,0.1,0.1,0.1l-4.3,0.9c-0.7,0.2-1.5,0.3-2.3,0.4c-0.1-0.1-0.2-0.1-0.3-0.1
		c-0.4,0-0.7,0.1-1.1,0.3c-0.2-0.1-0.4-0.1-0.7-0.1c-0.4,0-0.8,0.1-1,0.3c0.4,0.4,1,1,1.6,2c0.4,0.9,0.9,1.7,1.3,2.6
		c0.6,1.2,1.4,2,2.3,2.4c0.6,0.3,1.8,0.4,3.8,0.4c0.2,0,0.3,0,0.4-0.1c0.4,0,0.9-0.1,1.3-0.3c0.3-0.2,0.5-0.4,0.7-0.9
		c0.2-0.3,0.4-0.5,0.7-0.7c0.2,0.4,0.3,0.6,0.3,0.7c0.1,0.1,0.1,0.4,0.1,0.9c-0.9,1.5-2.7,2.2-5.5,2.3c-2.2-0.4-4.1-2-5.8-5
		c-0.4-0.9-1.1-2-1.8-3.5c-0.1,0.1-0.1,0.4-0.1,0.9c0.4,2.6,0.5,4.8,0.6,6.5h-0.1c-0.6-3-0.9-5.5-1.1-7.4c-0.1,0.3-0.4,1-0.9,2.3
		c-0.4,1.7-0.8,2.8-1,3.4c-0.4,1.3-1.1,2.2-2,2.8c-0.2-0.2-0.3-0.3-0.3-0.4c-0.1-0.1-0.1-0.3-0.1-0.6c0.1-0.1,0.1-0.2,0.1-0.3
		c0.3-0.7,0.7-1.5,1.3-2.3c0.7-1.3,1.2-2.1,1.3-2.3l0.3-0.9c0.2-1.2,0.4-2.1,0.7-2.6c-0.2-0.1-0.4-0.1-0.6-0.1c-0.2,0-0.3,0-0.4,0.1
		c-0.2,0-0.3,0-0.4-0.1c-1.1-0.2-1.8-0.4-2.1-0.6c0.6-0.4,1.6-0.6,3-0.9c0.9,0.3,1.8,0.4,3,0.4c0.1-0.1,0.2-0.1,0.3-0.1
		c0.1,0.1,0.1,0.1,0.1,0.1c0-0.2,0-0.3,0.1-0.4c0-0.1,0-0.2,0-0.4c-0.3,0-0.5,0-0.7-0.1c-2-0.2-3.3-0.4-3.8-0.7
		c0.3-0.2,0.7-0.3,1.3-0.3c0.6,0,1.1,0,1.6,0c0.4,0,0.9,0,1.3,0c0-0.2,0-0.4,0.1-0.6c-0.7-0.3-2.1-0.5-4-0.7
		c-0.7-0.2-1.3-0.3-1.8-0.3c-0.4-0.1-1.1-0.2-1.8-0.4c0.9-0.6,2.4-0.9,4.4-0.9c0.1,0,0.2,0,0.4,0.1c0-0.1,0-0.1,0.1-0.1
		c-0.1-0.1-0.1-0.2-0.1-0.3c0.4-0.6,0.9-1.1,1.4-1.4c0-0.3,0-0.5-0.1-0.6c0-1-0.1-1.6-0.3-1.8c-0.1-0.1-0.4-0.1-0.9-0.1
		c-0.2,0.1-0.4,0.1-0.7,0.1c-0.4,1.9-1,2.9-1.7,3c-0.2,0-0.4,0-0.7,0c-1.1-0.3-2.1-0.8-3-1.6C107.6,131.7,107.2,130.7,107.5,129.5z
		 M116.7,135.6c0.4,0,0.7,0,1,0.1h1.1c0.3-0.4,0.9-1.1,1.7-2c-0.7-0.7-1.1-1.3-1.1-1.8V131v-0.6c-0.2-0.1-0.4-0.1-0.6-0.1
		c-0.2,0.1-0.6,0.1-1.3,0.1c-0.6,0.2-0.9,0.3-0.9,0.4c-0.1,0.1-0.1,0.5-0.1,1.4c0.1,0.6,0.1,1.1,0.1,1.6c-0.1,0.3-0.1,0.8-0.1,1.6
		C116.6,135.5,116.6,135.6,116.7,135.6z M127.3,141.7c-0.4,2.1-1.6,3.1-3.8,3.1c-0.9-0.6-1.3-1.4-1.3-2.4c0-0.3,0-0.6,0-1
		c0.4-0.4,1.4-0.7,2.8-0.7C126.5,140.7,127.3,141,127.3,141.7z"/>
</g>
<text transform="matrix(0.9613 0 -0.2756 0.9613 85.5303 194.4447)" class="st2 st3 st4">utsuwa</text>
</svg>
